<svg xmlns="http://www.w3.org/2000/svg" xmlns:xlink="http://www.w3.org/1999/xlink" width="259" height="135" viewBox="0 0 259 135">
  <defs>
    <clipPath id="clip-path">
      <rect id="Rectangle_35" data-name="Rectangle 35" width="259" height="122" fill="#fff" stroke="#707070" stroke-width="1"/>
    </clipPath>
  </defs>
  <g id="Group_171" data-name="Group 171" transform="translate(-4656 1563)">
    <g id="LOGO-plain-FINAL" transform="translate(4656 -1563)">
      <g id="Group_164" data-name="Group 164">
        <g id="Mask_Group_1" data-name="Mask Group 1" clip-path="url(#clip-path)">
          <g id="logo-rond-noir" transform="translate(14.075 0.871)">
            <ellipse id="Ellipse_16" data-name="Ellipse 16" cx="61.442" cy="59.943" rx="61.442" ry="59.943" transform="translate(45.084 0)" stroke="#eeb15e" stroke-miterlimit="10" stroke-width="2"/>
            <g id="prima" transform="translate(0 19.201)">
              <g id="Group_73" data-name="Group 73">
                <path id="Path_37" data-name="Path 37" d="M800.312,342.517h14.52v45.135h-14.52Zm0,50.325h14.52v33.739h-14.52Zm20.224,3.385V385.169h4.278c2.722,0,3.37-1.014,3.37-2.144V355.832c0-1.129-.648-2.144-3.37-2.144H820.8V342.517h9.074c9.074,0,12.834,4.514,12.834,10.155v26.516c0,8.689-.648,17.039-12.186,17.039Z" transform="translate(-800.312 -342.517)" fill="#eca6d9"/>
                <path id="Path_38" data-name="Path 38" d="M1094.551,342.517h14.52v45.135h-14.52Zm0,50.325h14.52v33.739h-14.52Zm20.224,3.385V385.169h4.278c2.722,0,3.37-1.014,3.37-2.144V355.832c0-1.129-.648-2.144-3.37-2.144h-4.018V342.517h9.074c9.074,0,12.834,4.4,12.834,10.155v33.964c0,4.287-2.334,8.913-11.278,9.591l5.834,4.4,9.725,25.952h-15.168l-11.278-30.355Z" transform="translate(-1044.638 -342.517)" fill="#eca6d9"/>
                <path id="Path_39" data-name="Path 39" d="M1415.543,342.517h14.651v45.135h-14.651Zm0,50.325h14.651v33.739h-14.651Z" transform="translate(-1311.179 -342.517)" fill="#eca6d9"/>
                <path id="Path_40" data-name="Path 40" d="M1600.861,394.31l-28.65-51.793h15.556l21.52,38.929-6.612,12.864h-1.817Zm-28.523-38.7,14.26,25.725v6.319h-14.26V355.605Zm0,37.236h14.26v33.739h-14.26Zm44.339-23.921h-.648l-3.5,6.77-7.26-13.088,10.63-20.085h15.3v84.064h-14.52Z" transform="translate(-1441.271 -342.517)" fill="#eca6d9"/>
                <path id="Path_41" data-name="Path 41" d="M1972.216,342.517h17.5l8.556,45.135h-13.482l-3.891-23.47h-.518l-5.444,36.334h6.095l1.556,11.623h-9.334l-2.074,14.445h-15.3l16.334-84.064Zm18.15,84.064-4.8-33.74h13.742l6.352,33.74Z" transform="translate(-1759.861 -342.517)" fill="#eca6d9"/>
              </g>
            </g>
          </g>
        </g>
      </g>
    </g>
    <g id="Group_170" data-name="Group 170" transform="translate(4844.229 -1454.266)">
      <g id="Group_169" data-name="Group 169" transform="translate(0 0)">
        <rect id="Rectangle_50" data-name="Rectangle 50" width="71" height="25" transform="translate(-0.229 0.266)" fill="#060606"/>
        <text id="COLORS" transform="translate(-0.229 20.266)" fill="#eeb15e" font-size="20" font-family="PFVenue-Stencil, PF Venue Stencil" letter-spacing="0.23em"><tspan x="0" y="0">COLORS</tspan></text>
      </g>
    </g>
  </g>
</svg>
